<svg xmlns="http://www.w3.org/2000/svg" width="27" height="36" viewBox="0 0 27 36">
  <path id="Icon_awesome-clipboard-check" data-name="Icon awesome-clipboard-check" d="M23.625,4.5H18a4.5,4.5,0,0,0-9,0H3.375A3.376,3.376,0,0,0,0,7.875v24.75A3.376,3.376,0,0,0,3.375,36h20.25A3.376,3.376,0,0,0,27,32.625V7.875A3.376,3.376,0,0,0,23.625,4.5ZM13.5,2.813A1.688,1.688,0,1,1,11.813,4.5,1.683,1.683,0,0,1,13.5,2.813Zm8.522,16.3-10.055,9.97a.845.845,0,0,1-1.2-.007L4.964,23.217a.845.845,0,0,1,.007-1.2l2-1.983a.845.845,0,0,1,1.2.007L11.4,23.309l7.453-7.4a.845.845,0,0,1,1.2.007l1.983,2A.845.845,0,0,1,22.022,19.111Z" fill="#1ba3c3"/>
</svg>
